Results
version=1
nRows=12
nColumns=38
inDegrees=yes
endheader
time	pelvis_tilt	pelvis_list	pelvis_rotation	pelvis_tx	pelvis_ty	pelvis_tz	hip_flexion_r	hip_adduction_r	hip_rotation_r	knee_angle_r	ankle_angle_r	subtalar_angle_r	mtp_angle_r	hip_flexion_l	hip_adduction_l	hip_rotation_l	knee_angle_l	ankle_angle_l	subtalar_angle_l	mtp_angle_l	lumbar_extension	lumbar_bending	lumbar_rotation	arm_flex_r	arm_add_r	arm_rot_r	elbow_flex_r	pro_sup_r	wrist_flex_r	wrist_dev_r	arm_flex_l	arm_add_l	arm_rot_l	elbow_flex_l	pro_sup_l	wrist_flex_l	wrist_dev_l
      5.00000000	     -1.16014002	     -1.96834669	     -1.80191329	      0.88425135	      1.08634985	     -0.26412800	     16.73628024	      5.22883109	     -1.08740894	    -14.37588074	     10.00759838	      0.00000000	      0.00000000	    -14.40225192	      4.80395635	     10.25105546	    -35.02658979	    -12.38024852	      0.00000000	      0.00000000	     -4.75341410	      4.50541736	     -6.69116609	    -40.55839307	    -12.80635339	    -11.28573618	    115.62448846	     68.76540440	      0.00000000	      0.00000000	    -20.53123118	    -23.74047374	     -0.70333056	    128.84047283	     63.54820521	      0.00000000	      0.00000000
      5.00400000	     -0.90604596	     -2.06507485	     -1.89876595	      0.88439795	      1.08422578	     -0.26445484	     16.60680727	      5.29713600	     -1.43060326	    -15.26960114	      9.10343522	      0.00000000	      0.00000000	    -14.10630475	      4.97290071	     10.31261335	    -36.79094735	    -11.95643223	      0.00000000	      0.00000000	     -5.02917162	      4.70195526	     -6.26340889	    -40.18344257	    -13.43224194	    -11.16931432	    115.45744143	     68.75109337	      0.00000000	      0.00000000	    -20.63322505	    -23.30945367	     -0.88936198	    128.50098602	     63.48373967	      0.00000000	      0.00000000
      5.00800000	     -0.57017880	     -2.08020428	     -1.97012899	      0.88448974	      1.08199375	     -0.26482977	     16.41255681	      5.25076974	     -1.67805200	    -16.32042293	      8.09190887	      0.00000000	      0.00000000	    -13.87817344	      5.19142290	     10.31901045	    -38.50507842	    -11.79077496	      0.00000000	      0.00000000	     -5.41358977	      4.80300170	     -5.88268323	    -39.73891649	    -13.96593800	    -11.22452099	    115.37101656	     68.72501176	      0.00000000	      0.00000000	    -20.75602181	    -22.98461544	     -0.95033024	    128.23358177	     63.43525223	      0.00000000	      0.00000000
      5.01200000	     -0.22786154	     -2.13331449	     -2.02168654	      0.88460631	      1.07969824	     -0.26513919	     16.19197265	      5.23563827	     -1.94486032	    -17.41251994	      7.20406834	      0.00000000	      0.00000000	    -13.63980476	      5.33559198	     10.22926094	    -40.22609512	    -11.60409480	      0.00000000	      0.00000000	     -5.79461098	      4.92009839	     -5.46343607	    -39.35322404	    -14.59566860	    -11.15539283	    115.24944955	     68.69016966	      0.00000000	      0.00000000	    -20.90258650	    -22.64306073	     -1.01702998	    127.94812370	     63.40089790	      0.00000000	      0.00000000
      5.01600000	      0.13290168	     -2.18350003	     -2.05563680	      0.88465731	      1.07730934	     -0.26543828	     15.94910790	      5.22149821	     -2.13106887	    -18.52616692	      6.78213979	      0.00000000	      0.00000000	    -13.40254018	      5.46665037	     10.15558826	    -41.93840886	    -11.46706401	      0.00000000	      0.00000000	     -6.21026612	      5.04690519	     -5.04620939	    -38.94995413	    -15.15791969	    -11.17182118	    115.16990654	     68.64361090	      0.00000000	      0.00000000	    -21.02571017	    -22.31998365	     -1.13820506	    127.63163325	     63.36377098	      0.00000000	      0.00000000
      5.02000000	      0.33809340	     -2.31368064	     -2.05698527	      0.88454086	      1.07466104	     -0.26563401	     15.92671251	      5.30471571	     -2.24087005	    -19.77215941	      7.11975051	      0.00000000	      0.00000000	    -12.91789987	      5.43867387	      9.90145701	    -43.77737252	    -11.23790928	      0.00000000	      0.00000000	     -6.45187514	      5.22071284	     -4.91844132	    -38.34328218	    -16.02038537	    -10.69377722	    114.94226804	     68.45953212	      0.00000000	      0.00000000	    -21.45955343	    -21.77761631	     -1.71039698	    127.38861707	     63.28247902	      0.00000000	      0.00000000
      5.02400000	      0.75397815	     -2.49287934	     -2.04224830	      0.88433184	      1.07229457	     -0.26574428	     15.69408664	      5.52188393	     -2.16981258	    -21.17825004	      8.53157031	      0.00000000	      0.00000000	    -12.64890928	      5.32151234	      9.59566097	    -45.58894440	    -11.04671644	      0.00000000	      0.00000000	     -6.95675572	      5.46675786	     -4.50181665	    -37.86856614	    -16.54048253	    -10.70286370	    114.76227853	     68.37874792	      0.00000000	      0.00000000	    -21.52630359	    -21.49371083	     -1.73648489	    126.96513967	     63.24974354	      0.00000000	      0.00000000
      5.02800000	      1.10126603	     -2.69519842	     -2.07207595	      0.88405585	      1.06969851	     -0.26562678	     15.57997984	      5.82757199	     -2.01117515	    -22.71038971	     10.16340333	      0.00000000	      0.00000000	    -12.27902648	      5.14699374	      9.18162521	    -47.41347125	    -10.79656041	      0.00000000	      0.00000000	     -7.37646733	      5.69590375	     -4.07598869	    -37.32854129	    -17.12127233	    -10.64611167	    114.59694882	     68.28383532	      0.00000000	      0.00000000	    -21.67079780	    -21.18327731	     -1.88515054	    126.57723516	     63.19977588	      0.00000000	      0.00000000
      5.03200000	      1.33781201	     -2.86153352	     -2.14048645	      0.88369941	      1.06678459	     -0.26539653	     15.64435465	      6.11969430	     -1.73731440	    -24.39236227	     11.58509696	      0.00000000	      0.00000000	    -11.76044417	      4.98529875	      8.71947122	    -49.26732859	    -10.51875119	      0.00000000	      0.00000000	     -7.70279238	      5.88250808	     -3.67615074	    -36.80236802	    -17.74467881	    -10.44363714	    114.44107653	     68.15441364	      0.00000000	      0.00000000	    -21.94548758	    -20.81656554	     -2.27115269	    126.20022481	     63.15813506	      0.00000000	      0.00000000
      5.03600000	      1.50851630	     -2.98708071	     -2.17835232	      0.88308211	      1.06371538	     -0.26527822	     15.88921726	      6.35235264	     -1.51498871	    -26.23249353	     12.77244102	      0.00000000	      0.00000000	    -11.09557137	      4.81760272	      8.22079544	    -51.18099485	    -10.19083893	      0.00000000	      0.00000000	     -7.96731860	      6.03256734	     -3.36838587	    -36.11968795	    -18.45485179	    -10.11686090	    114.20611343	     67.90759499	      0.00000000	      0.00000000	    -22.25610659	    -20.37993640	     -2.63722872	    125.88674512	     63.10179862	      0.00000000	      0.00000000
      5.04000000	      1.73918479	     -3.11581454	     -2.19004724	      0.88237443	      1.06077472	     -0.26522929	     16.14602861	      6.58731544	     -1.31117893	    -28.16356383	     14.11184781	      0.00000000	      0.00000000	    -10.50424362	      4.64498186	      7.79180653	    -53.02875335	     -9.87677040	      0.00000000	      0.00000000	     -8.32312169	      6.19482772	     -2.98555608	    -35.48632740	    -19.06684390	     -9.88975504	    113.97597671	     67.55374935	      0.00000000	      0.00000000	    -22.46434763	    -20.00146218	     -2.96969441	    125.48440455	     62.97305736	      0.00000000	      0.00000000
      5.04400000	      2.24342053	     -3.24904023	     -2.11321458	      0.88177514	      1.05827302	     -0.26542304	     16.09012142	      6.73820936	     -1.30114915	    -30.02500165	     15.08232369	      0.00000000	      0.00000000	    -10.23497285	      4.45091204	      7.46635498	    -54.76169139	     -9.57143163	      0.00000000	      0.00000000	     -8.96750520	      6.37081456	     -2.60075010	    -34.83587764	    -19.56900542	     -9.94467471	    113.78452714	     67.47327039	      0.00000000	      0.00000000	    -22.52083188	    -19.74172479	     -2.96837605	    124.99485387	     62.92777086	      0.00000000	      0.00000000
